<svg width="239" height="47" viewBox="0 0 239 47" fill="none" xmlns="http://www.w3.org/2000/svg">
<path d="M1.56 36C1.208 36 0.92 35.888 0.696 35.664C0.472 35.44 0.36 35.152 0.36 34.8V3.6C0.36 3.248 0.472 2.96 0.696 2.736C0.92 2.512 1.208 2.4 1.56 2.4H7.752C8.104 2.4 8.392 2.512 8.616 2.736C8.84 2.96 8.952 3.248 8.952 3.6V15.168H20.808V3.6C20.808 3.248 20.92 2.96 21.144 2.736C21.368 2.512 21.656 2.4 22.008 2.4H28.2C28.552 2.4 28.84 2.512 29.064 2.736C29.288 2.96 29.4 3.248 29.4 3.6V34.8C29.4 35.152 29.288 35.44 29.064 35.664C28.84 35.888 28.552 36 28.2 36H22.008C21.656 36 21.368 35.888 21.144 35.664C20.92 35.44 20.808 35.152 20.808 34.8V22.848H8.952V34.8C8.952 35.152 8.84 35.44 8.616 35.664C8.392 35.888 8.104 36 7.752 36H1.56ZM43.0856 36.48C41.3576 36.48 39.8056 36.16 38.4296 35.52C37.0856 34.848 36.0136 33.952 35.2136 32.832C34.4136 31.712 34.0136 30.448 34.0136 29.04C34.0136 26.768 34.9416 24.976 36.7976 23.664C38.6536 22.32 41.1176 21.408 44.1896 20.928L50.1896 20.016V19.344C50.1896 18.192 49.9496 17.312 49.4696 16.704C48.9896 16.096 48.1096 15.792 46.8296 15.792C45.9336 15.792 45.1976 15.968 44.6216 16.32C44.0776 16.672 43.6456 17.152 43.3256 17.76C43.0376 18.176 42.6376 18.384 42.1256 18.384H36.7496C36.3976 18.384 36.1256 18.288 35.9336 18.096C35.7416 17.872 35.6616 17.616 35.6936 17.328C35.6936 16.752 35.9016 16.096 36.3176 15.36C36.7656 14.592 37.4376 13.84 38.3336 13.104C39.2296 12.368 40.3816 11.76 41.7896 11.28C43.1976 10.8 44.8936 10.56 46.8776 10.56C48.9576 10.56 50.7336 10.8 52.2056 11.28C53.6776 11.76 54.8616 12.432 55.7576 13.296C56.6856 14.16 57.3736 15.184 57.8216 16.368C58.2696 17.52 58.4936 18.8 58.4936 20.208V34.8C58.4936 35.152 58.3656 35.44 58.1096 35.664C57.8856 35.888 57.6136 36 57.2936 36H51.7256C51.3736 36 51.0856 35.888 50.8616 35.664C50.6376 35.44 50.5256 35.152 50.5256 34.8V33.12C50.1096 33.728 49.5496 34.288 48.8456 34.8C48.1416 35.312 47.3096 35.712 46.3496 36C45.4216 36.32 44.3336 36.48 43.0856 36.48ZM45.3416 31.008C46.2696 31.008 47.1016 30.816 47.8376 30.432C48.6056 30.016 49.1976 29.392 49.6136 28.56C50.0616 27.696 50.2856 26.624 50.2856 25.344V24.672L46.2056 25.392C44.7016 25.648 43.5976 26.048 42.8936 26.592C42.2216 27.104 41.8856 27.712 41.8856 28.416C41.8856 28.96 42.0456 29.424 42.3656 29.808C42.6856 30.192 43.1016 30.496 43.6136 30.72C44.1256 30.912 44.7016 31.008 45.3416 31.008ZM65.1101 36C64.7581 36 64.4701 35.888 64.2461 35.664C64.0221 35.44 63.9101 35.152 63.9101 34.8V12.24C63.9101 11.888 64.0221 11.6 64.2461 11.376C64.4701 11.152 64.7581 11.04 65.1101 11.04H70.6301C70.9821 11.04 71.2701 11.152 71.4941 11.376C71.7181 11.6 71.8301 11.888 71.8301 12.24V14.064C72.6621 13.072 73.7501 12.24 75.0941 11.568C76.4381 10.896 78.0221 10.56 79.8461 10.56C81.7021 10.56 83.3341 10.976 84.7421 11.808C86.1821 12.64 87.3021 13.872 88.1021 15.504C88.9341 17.104 89.3501 19.072 89.3501 21.408V34.8C89.3501 35.152 89.2221 35.44 88.9661 35.664C88.7421 35.888 88.4701 36 88.1501 36H82.1021C81.7821 36 81.4941 35.888 81.2381 35.664C81.0141 35.44 80.9021 35.152 80.9021 34.8V21.696C80.9021 20.192 80.5341 19.04 79.7981 18.24C79.0941 17.408 78.0381 16.992 76.6301 16.992C75.3181 16.992 74.2621 17.408 73.4621 18.24C72.6941 19.04 72.3101 20.192 72.3101 21.696V34.8C72.3101 35.152 72.1821 35.44 71.9261 35.664C71.7021 35.888 71.4301 36 71.1101 36H65.1101ZM106.947 46.56C104.483 46.56 102.435 46.24 100.803 45.6C99.203 44.96 97.923 44.192 96.963 43.296C96.035 42.4 95.363 41.504 94.947 40.608C94.531 39.744 94.307 39.056 94.275 38.544C94.243 38.192 94.355 37.904 94.611 37.68C94.867 37.456 95.171 37.344 95.523 37.344H101.619C101.907 37.344 102.147 37.408 102.339 37.536C102.563 37.696 102.739 37.952 102.867 38.304C103.027 38.656 103.235 39.024 103.491 39.408C103.779 39.792 104.163 40.096 104.643 40.32C105.155 40.576 105.843 40.704 106.707 40.704C107.667 40.704 108.467 40.544 109.107 40.224C109.747 39.936 110.227 39.44 110.547 38.736C110.867 38.064 111.027 37.152 111.027 36V32.784C110.291 33.584 109.347 34.24 108.195 34.752C107.043 35.232 105.651 35.472 104.019 35.472C102.387 35.472 100.947 35.232 99.699 34.752C98.451 34.272 97.411 33.552 96.579 32.592C95.747 31.632 95.091 30.464 94.611 29.088C94.163 27.712 93.891 26.128 93.795 24.336C93.763 23.504 93.763 22.672 93.795 21.84C93.891 20.112 94.163 18.56 94.611 17.184C95.059 15.808 95.699 14.624 96.531 13.632C97.395 12.64 98.451 11.888 99.699 11.376C100.947 10.832 102.387 10.56 104.019 10.56C105.747 10.56 107.219 10.896 108.435 11.568C109.683 12.208 110.707 13.024 111.507 14.016V12.24C111.507 11.92 111.619 11.648 111.843 11.424C112.067 11.168 112.355 11.04 112.707 11.04H118.227C118.579 11.04 118.867 11.168 119.091 11.424C119.347 11.648 119.475 11.92 119.475 12.24V35.328C119.475 37.76 118.979 39.808 117.987 41.472C116.995 43.136 115.571 44.4 113.715 45.264C111.859 46.128 109.603 46.56 106.947 46.56ZM106.611 29.232C107.635 29.232 108.467 29.008 109.107 28.56C109.747 28.112 110.211 27.536 110.499 26.832C110.819 26.128 110.995 25.376 111.027 24.576C111.059 24.224 111.075 23.728 111.075 23.088C111.075 22.448 111.059 21.968 111.027 21.648C110.995 20.816 110.819 20.048 110.499 19.344C110.211 18.64 109.747 18.08 109.107 17.664C108.467 17.216 107.635 16.992 106.611 16.992C105.555 16.992 104.707 17.216 104.067 17.664C103.459 18.112 103.011 18.72 102.723 19.488C102.467 20.256 102.307 21.104 102.243 22.032C102.211 22.736 102.211 23.456 102.243 24.192C102.307 25.12 102.467 25.968 102.723 26.736C103.011 27.504 103.459 28.112 104.067 28.56C104.707 29.008 105.555 29.232 106.611 29.232ZM136.649 36.48C132.873 36.48 129.865 35.456 127.625 33.408C125.385 31.36 124.217 28.32 124.121 24.288C124.121 24.064 124.121 23.776 124.121 23.424C124.121 23.072 124.121 22.8 124.121 22.608C124.217 20.08 124.777 17.92 125.801 16.128C126.857 14.304 128.297 12.928 130.121 12C131.977 11.04 134.137 10.56 136.601 10.56C139.417 10.56 141.737 11.12 143.561 12.24C145.417 13.36 146.809 14.88 147.737 16.8C148.665 18.72 149.129 20.912 149.129 23.376V24.528C149.129 24.88 149.001 25.168 148.745 25.392C148.521 25.616 148.249 25.728 147.929 25.728H132.569C132.569 25.76 132.569 25.808 132.569 25.872C132.569 25.936 132.569 26 132.569 26.064C132.601 26.992 132.761 27.84 133.049 28.608C133.337 29.376 133.785 29.984 134.393 30.432C135.001 30.88 135.737 31.104 136.601 31.104C137.241 31.104 137.769 31.008 138.185 30.816C138.633 30.592 139.001 30.352 139.289 30.096C139.577 29.808 139.801 29.568 139.961 29.376C140.249 29.056 140.473 28.864 140.633 28.8C140.825 28.704 141.113 28.656 141.497 28.656H147.449C147.769 28.656 148.025 28.752 148.217 28.944C148.441 29.104 148.537 29.344 148.505 29.664C148.473 30.208 148.201 30.864 147.689 31.632C147.177 32.4 146.425 33.168 145.433 33.936C144.473 34.672 143.257 35.28 141.785 35.76C140.313 36.24 138.601 36.48 136.649 36.48ZM132.569 20.976H140.681V20.88C140.681 19.856 140.521 18.96 140.201 18.192C139.913 17.424 139.449 16.832 138.809 16.416C138.201 16 137.465 15.792 136.601 15.792C135.737 15.792 135.001 16 134.393 16.416C133.817 16.832 133.369 17.424 133.049 18.192C132.729 18.96 132.569 19.856 132.569 20.88V20.976ZM162.797 36.48C160.973 36.48 159.341 36.064 157.901 35.232C156.493 34.4 155.389 33.184 154.589 31.584C153.789 29.952 153.389 27.968 153.389 25.632V12.24C153.389 11.888 153.501 11.6 153.725 11.376C153.949 11.152 154.237 11.04 154.589 11.04H160.589C160.941 11.04 161.229 11.152 161.453 11.376C161.677 11.6 161.789 11.888 161.789 12.24V25.344C161.789 28.48 163.197 30.048 166.013 30.048C167.325 30.048 168.365 29.648 169.133 28.848C169.933 28.016 170.333 26.848 170.333 25.344V12.24C170.333 11.888 170.445 11.6 170.669 11.376C170.893 11.152 171.181 11.04 171.533 11.04H177.533C177.885 11.04 178.173 11.152 178.397 11.376C178.621 11.6 178.733 11.888 178.733 12.24V34.8C178.733 35.152 178.621 35.44 178.397 35.664C178.173 35.888 177.885 36 177.533 36H171.965C171.645 36 171.357 35.888 171.101 35.664C170.877 35.44 170.765 35.152 170.765 34.8V32.976C169.933 34.128 168.845 35.008 167.501 35.616C166.189 36.192 164.621 36.48 162.797 36.48ZM185.579 36C185.227 36 184.939 35.888 184.715 35.664C184.491 35.44 184.379 35.152 184.379 34.8V3.12C184.379 2.768 184.491 2.48 184.715 2.256C184.939 2.032 185.227 1.92 185.579 1.92H191.243C191.595 1.92 191.883 2.032 192.107 2.256C192.331 2.48 192.443 2.768 192.443 3.12V34.8C192.443 35.152 192.331 35.44 192.107 35.664C191.883 35.888 191.595 36 191.243 36H185.579Z" fill="#1A1A1A"/>
<path d="M199.313 36C198.961 36 198.673 35.888 198.449 35.664C198.225 35.44 198.113 35.152 198.113 34.8V12.24C198.113 11.888 198.225 11.6 198.449 11.376C198.673 11.152 198.961 11.04 199.313 11.04H204.977C205.297 11.04 205.569 11.152 205.793 11.376C206.049 11.6 206.177 11.888 206.177 12.24V34.8C206.177 35.152 206.049 35.44 205.793 35.664C205.569 35.888 205.297 36 204.977 36H199.313ZM199.265 7.44C198.913 7.44 198.625 7.328 198.401 7.104C198.177 6.88 198.065 6.592 198.065 6.24V1.968C198.065 1.616 198.177 1.328 198.401 1.104C198.625 0.847999 198.913 0.719999 199.265 0.719999H204.977C205.329 0.719999 205.617 0.847999 205.841 1.104C206.097 1.328 206.225 1.616 206.225 1.968V6.24C206.225 6.592 206.097 6.88 205.841 7.104C205.617 7.328 205.329 7.44 204.977 7.44H199.265ZM214.501 36C214.149 36 213.861 35.888 213.637 35.664C213.413 35.44 213.301 35.152 213.301 34.8V12.24C213.301 11.888 213.413 11.6 213.637 11.376C213.861 11.152 214.149 11.04 214.501 11.04H220.021C220.373 11.04 220.661 11.152 220.885 11.376C221.109 11.6 221.221 11.888 221.221 12.24V14.064C222.053 13.072 223.141 12.24 224.485 11.568C225.829 10.896 227.413 10.56 229.237 10.56C231.093 10.56 232.725 10.976 234.133 11.808C235.573 12.64 236.693 13.872 237.493 15.504C238.325 17.104 238.741 19.072 238.741 21.408V34.8C238.741 35.152 238.613 35.44 238.357 35.664C238.133 35.888 237.861 36 237.541 36H231.493C231.173 36 230.885 35.888 230.629 35.664C230.405 35.44 230.293 35.152 230.293 34.8V21.696C230.293 20.192 229.925 19.04 229.189 18.24C228.485 17.408 227.429 16.992 226.021 16.992C224.709 16.992 223.653 17.408 222.853 18.24C222.085 19.04 221.701 20.192 221.701 21.696V34.8C221.701 35.152 221.573 35.44 221.317 35.664C221.093 35.888 220.821 36 220.501 36H214.501Z" fill="#F2C033"/>
</svg>
