<svg width="179" height="35" viewBox="0 0 179 35" fill="none" xmlns="http://www.w3.org/2000/svg">
<path d="M1.42 27C1.156 27 0.94 26.916 0.772 26.748C0.604 26.58 0.52 26.364 0.52 26.1V2.7C0.52 2.436 0.604 2.22 0.772 2.052C0.964 1.884 1.18 1.8 1.42 1.8H6.064C6.328 1.8 6.544 1.884 6.712 2.052C6.904 2.22 7 2.436 7 2.7V11.376H15.856V2.7C15.856 2.436 15.94 2.22 16.108 2.052C16.276 1.884 16.492 1.8 16.756 1.8H21.4C21.664 1.8 21.88 1.884 22.048 2.052C22.216 2.22 22.3 2.436 22.3 2.7V26.1C22.3 26.364 22.216 26.58 22.048 26.748C21.88 26.916 21.664 27 21.4 27H16.756C16.492 27 16.276 26.916 16.108 26.748C15.94 26.58 15.856 26.364 15.856 26.1V17.136H7V26.1C7 26.364 6.904 26.58 6.712 26.748C6.544 26.916 6.328 27 6.064 27H1.42ZM32.5642 27.36C31.2922 27.36 30.1282 27.12 29.0722 26.64C28.0402 26.136 27.2242 25.464 26.6242 24.624C26.0482 23.76 25.7602 22.812 25.7602 21.78C25.7602 20.124 26.4322 18.792 27.7762 17.784C29.1442 16.776 31.0162 16.08 33.3922 15.696L37.8922 15.012V14.508C37.8922 13.596 37.7002 12.924 37.3162 12.492C36.9322 12.06 36.2842 11.844 35.3722 11.844C34.8202 11.844 34.3642 11.94 34.0042 12.132C33.6442 12.324 33.2722 12.588 32.8882 12.924C32.5522 13.212 32.3002 13.404 32.1322 13.5C32.0602 13.692 31.9282 13.788 31.7362 13.788H27.8122C27.5722 13.788 27.3682 13.716 27.2002 13.572C27.0562 13.404 26.9962 13.212 27.0202 12.996C27.0442 12.348 27.3562 11.628 27.9562 10.836C28.5802 10.044 29.5162 9.36 30.7642 8.784C32.0362 8.208 33.5962 7.92 35.4442 7.92C38.3962 7.92 40.5802 8.58 41.9962 9.9C43.4122 11.196 44.1202 12.948 44.1202 15.156V26.1C44.1202 26.34 44.0362 26.556 43.8682 26.748C43.7002 26.916 43.4842 27 43.2202 27H39.0442C38.8042 27 38.5882 26.916 38.3962 26.748C38.2282 26.556 38.1442 26.34 38.1442 26.1V24.84C37.6162 25.584 36.8722 26.196 35.9122 26.676C34.9762 27.132 33.8602 27.36 32.5642 27.36ZM34.2562 23.256C35.3602 23.256 36.2482 22.896 36.9202 22.176C37.6162 21.456 37.9642 20.4 37.9642 19.008V18.504L34.9042 19.044C32.7442 19.428 31.6642 20.184 31.6642 21.312C31.6642 21.912 31.9162 22.392 32.4202 22.752C32.9242 23.088 33.5362 23.256 34.2562 23.256ZM49.0826 27C48.8186 27 48.6026 26.916 48.4346 26.748C48.2666 26.58 48.1826 26.364 48.1826 26.1V9.18C48.1826 8.916 48.2666 8.7 48.4346 8.532C48.6026 8.364 48.8186 8.28 49.0826 8.28H53.2226C53.4866 8.28 53.7026 8.364 53.8706 8.532C54.0626 8.7 54.1586 8.916 54.1586 9.18V10.548C54.8066 9.756 55.6346 9.12 56.6426 8.64C57.6746 8.16 58.8386 7.92 60.1346 7.92C62.2466 7.92 63.9626 8.64 65.2826 10.08C66.6026 11.496 67.2626 13.488 67.2626 16.056V26.1C67.2626 26.34 67.1786 26.556 67.0106 26.748C66.8426 26.916 66.6266 27 66.3626 27H61.8266C61.5866 27 61.3706 26.916 61.1786 26.748C61.0106 26.556 60.9266 26.34 60.9266 26.1V16.272C60.9266 15.144 60.6506 14.28 60.0986 13.68C59.5466 13.056 58.7546 12.744 57.7226 12.744C56.7146 12.744 55.9226 13.056 55.3466 13.68C54.7706 14.28 54.4826 15.144 54.4826 16.272V26.1C54.4826 26.34 54.3986 26.556 54.2306 26.748C54.0626 26.916 53.8466 27 53.5826 27H49.0826ZM80.4954 34.92C78.2154 34.92 76.3674 34.548 74.9514 33.804C73.5354 33.06 72.5154 32.208 71.8914 31.248C71.2914 30.288 70.9914 29.484 70.9914 28.836C70.9914 28.62 71.0874 28.428 71.2794 28.26C71.4714 28.092 71.6874 28.008 71.9274 28.008H76.4994C76.7394 28.008 76.9194 28.056 77.0394 28.152C77.1834 28.272 77.3154 28.464 77.4354 28.728C77.6754 29.28 77.9994 29.712 78.4074 30.024C78.8154 30.36 79.4514 30.528 80.3154 30.528C81.4194 30.528 82.2354 30.252 82.7634 29.7C83.2914 29.172 83.5554 28.272 83.5554 27V24.588C82.3314 25.932 80.5794 26.604 78.2994 26.604C75.8754 26.604 74.0154 25.896 72.7194 24.48C71.4474 23.04 70.7514 20.964 70.6314 18.252L70.5954 17.28C70.5954 14.376 71.2434 12.096 72.5394 10.44C73.8354 8.76 75.7554 7.92 78.2994 7.92C79.5234 7.92 80.6034 8.16 81.5394 8.64C82.4754 9.096 83.2674 9.72 83.9154 10.512V9.18C83.9154 8.916 83.9994 8.7 84.1674 8.532C84.3594 8.364 84.5754 8.28 84.8154 8.28H88.9554C89.2194 8.28 89.4354 8.376 89.6034 8.568C89.7954 8.736 89.8914 8.94 89.8914 9.18V26.496C89.8914 29.232 89.0754 31.32 87.4434 32.76C85.8114 34.2 83.4954 34.92 80.4954 34.92ZM80.2434 21.924C81.3234 21.924 82.1274 21.6 82.6554 20.952C83.1834 20.28 83.4834 19.44 83.5554 18.432C83.5794 18.264 83.5914 17.892 83.5914 17.316C83.5914 16.764 83.5794 16.404 83.5554 16.236C83.5074 15.228 83.2074 14.4 82.6554 13.752C82.1274 13.08 81.3234 12.744 80.2434 12.744C79.1154 12.744 78.2994 13.08 77.7954 13.752C77.2914 14.424 77.0154 15.348 76.9674 16.524L76.9314 17.316C76.9314 18.732 77.1714 19.86 77.6514 20.7C78.1314 21.516 78.9954 21.924 80.2434 21.924ZM102.772 27.36C99.8918 27.36 97.6238 26.58 95.9678 25.02C94.3118 23.46 93.4478 21.192 93.3758 18.216V16.956C93.4718 14.124 94.3478 11.916 96.0038 10.332C97.6838 8.724 99.9278 7.92 102.736 7.92C104.776 7.92 106.492 8.34 107.884 9.18C109.3 9.996 110.356 11.124 111.052 12.564C111.772 14.004 112.132 15.66 112.132 17.532V18.396C112.132 18.636 112.048 18.852 111.88 19.044C111.712 19.212 111.496 19.296 111.232 19.296H99.7118V19.548C99.7598 20.676 100.036 21.588 100.54 22.284C101.044 22.98 101.776 23.328 102.736 23.328C103.336 23.328 103.828 23.208 104.212 22.968C104.596 22.704 104.944 22.392 105.256 22.032C105.472 21.768 105.64 21.612 105.76 21.564C105.904 21.492 106.12 21.456 106.408 21.456H110.872C111.088 21.456 111.268 21.528 111.412 21.672C111.58 21.792 111.664 21.96 111.664 22.176C111.664 22.8 111.304 23.52 110.584 24.336C109.888 25.152 108.868 25.86 107.524 26.46C106.18 27.06 104.596 27.36 102.772 27.36ZM105.796 15.732V15.66C105.796 14.484 105.52 13.56 104.968 12.888C104.44 12.192 103.696 11.844 102.736 11.844C101.8 11.844 101.056 12.192 100.504 12.888C99.9758 13.56 99.7118 14.484 99.7118 15.66V15.732H105.796ZM122.383 27.36C120.271 27.36 118.567 26.652 117.271 25.236C115.975 23.796 115.327 21.792 115.327 19.224V9.18C115.327 8.916 115.411 8.7 115.579 8.532C115.747 8.364 115.963 8.28 116.227 8.28H120.727C120.991 8.28 121.207 8.364 121.375 8.532C121.567 8.7 121.663 8.916 121.663 9.18V19.008C121.663 21.36 122.707 22.536 124.795 22.536C125.803 22.536 126.595 22.224 127.171 21.6C127.747 20.976 128.035 20.112 128.035 19.008V9.18C128.035 8.916 128.119 8.7 128.287 8.532C128.479 8.364 128.695 8.28 128.935 8.28H133.435C133.699 8.28 133.915 8.364 134.083 8.532C134.251 8.7 134.335 8.916 134.335 9.18V26.1C134.335 26.34 134.251 26.556 134.083 26.748C133.915 26.916 133.699 27 133.435 27H129.259C129.019 27 128.803 26.916 128.611 26.748C128.443 26.556 128.359 26.34 128.359 26.1V24.732C127.111 26.484 125.119 27.36 122.383 27.36ZM139.469 27C139.229 27 139.013 26.916 138.821 26.748C138.653 26.556 138.569 26.34 138.569 26.1V2.34C138.569 2.076 138.653 1.86 138.821 1.692C139.013 1.524 139.229 1.44 139.469 1.44H143.717C143.981 1.44 144.197 1.524 144.365 1.692C144.533 1.86 144.617 2.076 144.617 2.34V26.1C144.617 26.364 144.533 26.58 144.365 26.748C144.197 26.916 143.981 27 143.717 27H139.469Z" fill="#045285"/>
<path d="M149.734 5.58C149.47 5.58 149.254 5.496 149.086 5.328C148.918 5.16 148.834 4.944 148.834 4.68V1.44C148.834 1.176 148.918 0.959999 149.086 0.791998C149.254 0.623999 149.47 0.539999 149.734 0.539999H154.054C154.318 0.539999 154.534 0.623999 154.702 0.791998C154.87 0.959999 154.954 1.176 154.954 1.44V4.68C154.954 4.944 154.87 5.16 154.702 5.328C154.534 5.496 154.318 5.58 154.054 5.58H149.734ZM149.77 27C149.506 27 149.29 26.916 149.122 26.748C148.954 26.58 148.87 26.364 148.87 26.1V9.18C148.87 8.916 148.954 8.7 149.122 8.532C149.29 8.364 149.506 8.28 149.77 8.28H154.018C154.282 8.28 154.498 8.364 154.666 8.532C154.834 8.7 154.918 8.916 154.918 9.18V26.1C154.918 26.34 154.834 26.556 154.666 26.748C154.498 26.916 154.282 27 154.018 27H149.77ZM160.071 27C159.807 27 159.591 26.916 159.423 26.748C159.255 26.58 159.171 26.364 159.171 26.1V9.18C159.171 8.916 159.255 8.7 159.423 8.532C159.591 8.364 159.807 8.28 160.071 8.28H164.211C164.475 8.28 164.691 8.364 164.859 8.532C165.051 8.7 165.147 8.916 165.147 9.18V10.548C165.795 9.756 166.623 9.12 167.631 8.64C168.663 8.16 169.827 7.92 171.123 7.92C173.235 7.92 174.951 8.64 176.271 10.08C177.591 11.496 178.251 13.488 178.251 16.056V26.1C178.251 26.34 178.167 26.556 177.999 26.748C177.831 26.916 177.615 27 177.351 27H172.815C172.575 27 172.359 26.916 172.167 26.748C171.999 26.556 171.915 26.34 171.915 26.1V16.272C171.915 15.144 171.639 14.28 171.087 13.68C170.535 13.056 169.743 12.744 168.711 12.744C167.703 12.744 166.911 13.056 166.335 13.68C165.759 14.28 165.471 15.144 165.471 16.272V26.1C165.471 26.34 165.387 26.556 165.219 26.748C165.051 26.916 164.835 27 164.571 27H160.071Z" fill="#EC7589"/>
</svg>
